<?xml version="1.0" encoding="utf-8"?>
<!-- Generator: Adobe Illustrator 27.5.0, SVG Export Plug-In . SVG Version: 6.00 Build 0)  -->
<svg version="1.1" id="Layer_1" xmlns="http://www.w3.org/2000/svg" xmlns:xlink="http://www.w3.org/1999/xlink" x="0px" y="0px"
	 viewBox="0 0 123.06 21.94" style="enable-background:new 0 0 123.06 21.94;" xml:space="preserve">
<style type="text/css">
	.st0{fill:#FFFFFF;}
	.st1{fill:none;stroke:#FFFFFF;stroke-width:3;stroke-miterlimit:10;}
</style>
<g id="XMLID_00000150073619603144087050000008291374960958850191_">
	<g>
		<rect x="0.25" y="0.25" width="122.56" height="21.44"/>
	</g>
	<g>
	</g>
</g>
<g>
	<path class="st0" d="M19.3,16.23c0.81,0.5,1.98,0.91,3.23,0.91c1.84,0,2.92-0.97,2.92-2.38c0-1.3-0.74-2.05-2.63-2.77
		c-2.27-0.81-3.68-1.98-3.68-3.95c0-2.17,1.8-3.78,4.51-3.78c1.43,0,2.46,0.33,3.08,0.68l-0.5,1.47c-0.45-0.25-1.39-0.66-2.65-0.66
		c-1.9,0-2.63,1.14-2.63,2.09c0,1.3,0.85,1.94,2.77,2.69c2.36,0.91,3.56,2.05,3.56,4.09c0,2.15-1.59,4.01-4.88,4.01
		c-1.34,0-2.81-0.39-3.56-0.89L19.3,16.23z"/>
	<path class="st0" d="M32.38,6.02h-4.24V4.49h10.32v1.53H34.2v12.41h-1.82V6.02z"/>
	<path class="st0" d="M63.73,4.49v8.25c0,3.12,1.39,4.45,3.25,4.45c2.07,0,3.39-1.36,3.39-4.45V4.49h1.82v8.13
		c0,4.28-2.25,6.04-5.27,6.04c-2.85,0-5-1.63-5-5.95V4.49H63.73z"/>
	<path class="st0" d="M75.3,4.67c0.91-0.19,2.21-0.29,3.45-0.29c1.92,0,3.16,0.35,4.03,1.14c0.7,0.62,1.1,1.57,1.1,2.65
		c0,1.84-1.16,3.06-2.63,3.56v0.06c1.08,0.37,1.72,1.36,2.05,2.81c0.46,1.94,0.79,3.29,1.08,3.83h-1.86
		c-0.23-0.39-0.54-1.59-0.93-3.33c-0.41-1.92-1.16-2.65-2.79-2.71h-1.7v6.04h-1.8V4.67z M77.1,11.02h1.84
		c1.92,0,3.14-1.05,3.14-2.65c0-1.8-1.3-2.58-3.21-2.6c-0.87,0-1.49,0.08-1.78,0.17V11.02z"/>
	<path class="st0" d="M88.23,4.49v13.94h-1.8V4.49H88.23z"/>
	<path class="st0" d="M98.59,11.89h-5.42v5.02h6.04v1.51h-7.84V4.49h7.53V6h-5.73v4.4h5.42V11.89z"/>
	<path class="st0" d="M101.54,4.49h1.8v12.43h5.96v1.51h-7.75V4.49z"/>
</g>
<line class="st1" x1="0.25" y1="11.78" x2="122.81" y2="11.78"/>
<line class="st1" x1="47.98" y1="0.25" x2="47.98" y2="21.69"/>
</svg>
